<?xml version="1.0" encoding="UTF-8" standalone="no"?>
<!DOCTYPE svg PUBLIC "-//W3C//DTD SVG 1.1//EN" "http://www.w3.org/Graphics/SVG/1.1/DTD/svg11.dtd">
<svg width="100%" height="100%" viewBox="0 0 800 800" version="1.1" xmlns="http://www.w3.org/2000/svg" xmlns:xlink="http://www.w3.org/1999/xlink" xml:space="preserve" xmlns:serif="http://www.serif.com/" style="fill-rule:evenodd;clip-rule:evenodd;stroke-linecap:round;stroke-linejoin:round;stroke-miterlimit:1.5;">
    <g id="Layer1">
        <path d="M197.794,308.308L183.088,298.014L166.912,289.925L152.944,301.69L140.441,319.337L136.765,343.602L136.765,369.337L144.118,390.661L157.353,411.249L163.971,435.514L166.915,456.837L175.003,477.425L188.238,492.867L201.473,504.631L209.562,517.867L238.971,561.249L266.176,598.014L314.709,632.573C314.709,632.573 404.409,653.161 411.029,654.631C417.65,656.102 487.503,637.72 487.503,637.72L547.797,586.984L562.5,552.425L583.088,513.455L592.647,504.631L599.265,501.69L616.909,490.658L631.618,467.131L638.235,434.778L644.118,414.925L655.147,392.131L663.235,373.749L663.971,349.484L658.826,321.543L649.997,300.217L632.353,290.661L618.379,295.07L611.032,299.484L607.356,254.631L604.415,192.867L582.488,123.43C562.676,109.035 549.712,93.343 515.048,81.759C489.245,73.999 460.109,70.423 429.219,69.047C428.453,66.773 370.408,66.624 362.497,67.66C355.228,68.612 296.625,81.23 303.309,80.95C288.37,86.733 276.245,92.54 265.501,98.358L232.784,139.822L216.176,188.455L203.676,227.425L200.735,259.043L200.735,293.602L197.794,308.308Z" style="fill:rgb(255,223,162);"/>
        <path d="M197.794,308.308C201.468,312.717 188.238,306.837 188.238,306.837C188.238,306.837 194.112,322.273 191.909,322.276C189.706,322.278 190.441,342.867 190.441,342.867L192.647,366.396L195.591,416.396L197.059,458.308L200.003,485.514L198.529,506.837L202.206,531.837L209.562,540.661L203.676,563.455L208.826,595.808L215.441,612.72L216.176,634.043L222.062,665.661L236.029,686.249L242.647,703.161L252.206,730.367L270.591,746.543L285.297,749.484L298.529,756.837L323.532,773.014L361.029,780.367L389.709,778.161L400,774.484L416.915,779.631L458.826,778.161L487.503,768.602L510.294,751.69C510.294,751.69 537.506,743.602 537.503,745.073C537.5,746.543 555.15,718.602 555.15,718.602L560.294,691.396L580.882,654.715L580.15,627.425L582.353,612.72L597.059,578.896L595.588,550.955L593.382,542.867L600.738,529.631L603.674,509.04L599.262,476.687L604.415,400L608.091,348.014C608.091,348.014 612.5,302.425 611.765,303.161C611.029,303.896 595.588,318.602 595.588,318.602L594.85,342.128L590.444,389.925L577.941,451.69C577.941,451.69 553.676,508.308 552.206,508.308C550.735,508.308 527.941,533.308 527.206,533.308C526.471,533.308 508.088,544.337 508.088,544.337C508.088,544.337 494.856,548.017 494.853,549.484C494.85,550.952 476.471,536.984 476.471,536.984L433.088,517.131L412.497,514.923L400.368,523.749L388.973,513.455L378.674,513.452C378.674,513.452 363.235,520.808 362.5,520.808C361.765,520.808 339.697,526.684 338.968,526.687C338.238,526.69 324.997,539.187 324.997,539.187L303.676,548.014L289.709,545.073L265.438,525.952L231.618,478.161L217.65,438.455L209.559,392.131L206.621,367.131L205.147,332.573C205.147,332.573 194.121,303.899 197.794,308.308Z"/>
        <path d="M333.088,579.631L338.235,594.337L354.415,602.425L374.268,595.808L391.176,589.19L409.559,592.867L430.15,599.484L447.797,607.573L461.029,596.543L468.382,581.102L459.556,571.54L417.647,564.19C417.647,564.19 383.821,563.452 382.35,563.452C380.879,563.452 344.115,571.54 344.115,571.54L333.088,579.631" style="fill:rgb(255,223,162);stroke:black;stroke-width:1px;"/>
        <path d="M310.913,79.2C310.751,79.2 306.91,93.192 306.91,93.192L303.309,112.516L303.309,361.186C299.84,362.423 299.698,420.394 294.313,420.867C288.928,421.34 294.085,476.652 294.085,476.652C294.085,476.652 334.048,438.269 333.088,426.264C332.128,414.258 337.139,361.186 337.139,361.186L337.584,265.92L338.487,184.27L333.088,94.609L333.088,74.406C333.088,74.406 311.075,79.2 310.913,79.2Z" style="fill:rgb(52,164,237);"/>
        <g transform="matrix(1,0,0,1,-0.735294,0.0557206)">
            <path d="M244.856,303.152C244.856,302.425 272.794,309.043 272.794,309.043C272.794,309.043 286.029,313.455 286.765,312.72C287.5,311.984 314.703,317.128 314.703,317.128L339.706,323.749L355.885,331.837L363.232,339.187L360.294,349.484L341.174,345.07L289.703,342.128L259.559,334.043L250,318.602C250,318.602 244.856,303.878 244.856,303.152Z"/>
        </g>
        <g transform="matrix(-1,0,0,1,800.003,0.0557206)">
            <path d="M244.856,303.152C244.856,302.425 272.794,309.043 272.794,309.043C272.794,309.043 286.029,313.455 286.765,312.72C287.5,311.984 314.703,317.128 314.703,317.128L339.706,323.749L355.885,331.837L363.232,339.187L360.294,349.484L341.174,345.07L289.703,342.128L259.559,334.043L250,318.602C250,318.602 244.856,303.878 244.856,303.152Z"/>
        </g>
    </g>
</svg>
