<?xml version="1.0" encoding="UTF-8" standalone="no"?>
<!DOCTYPE svg PUBLIC "-//W3C//DTD SVG 1.1//EN" "http://www.w3.org/Graphics/SVG/1.1/DTD/svg11.dtd">
<svg width="100%" height="100%" viewBox="0 0 800 800" version="1.1" xmlns="http://www.w3.org/2000/svg" xmlns:xlink="http://www.w3.org/1999/xlink" xml:space="preserve" xmlns:serif="http://www.serif.com/" style="fill-rule:evenodd;clip-rule:evenodd;stroke-linecap:round;stroke-linejoin:round;stroke-miterlimit:1.5;">
    <g id="Layer1">
        <path d="M237.841,548.496L182.342,549.937L170.09,560.748L166.486,577.325L167.207,593.181L168.651,600.388L150.628,599.664L134.054,609.037L125.405,633.541L131.889,663.809L136.937,687.595L157.841,709.217L175.859,708.496L201.084,696.244L224.868,688.316L232.069,689.754L225.586,708.496L229.91,730.118L241.444,753.181L270.991,769.757L297.66,766.154L319.997,748.854L343.063,722.91L350.994,699.847L354.595,722.91L356.036,747.415L363.967,766.874L389.913,786.334C389.913,786.334 412.967,787.049 412.249,787.773C411.532,788.496 445.408,778.406 445.408,778.406L462.706,759.667L466.309,733.001L460.541,703.451L459.82,684.712L477.117,702.73L510.27,729.397L536.94,756.784L563.606,763.992L591.715,756.064L608.288,731.559L613.336,700.568L612.61,687.592L629.91,691.919L651.534,697.685L681.802,685.433L698.378,659.487L702.703,628.496L695.495,606.874L680.358,589.574L660.898,585.971L653.691,559.304L647.204,550.655L630.628,549.214L611.168,549.214L237.841,548.496" style="fill:rgb(131,64,10);stroke:black;stroke-width:1px;"/>
        <path d="M384.144,15.883L366.847,27.415L346.667,37.505L332.976,60.568L334.412,89.394L353.152,108.136L369.006,124.709L372.615,142.01L353.152,153.541L342.345,151.379L341.622,175.163L340.901,194.622L322.162,207.595L314.954,192.46L307.751,176.604L295.493,165.073L294.775,191.019L294.775,237.865L279.64,254.442L270.27,277.505L268.829,299.127L272.432,329.397L281.802,361.795L286.847,382.01L279.642,400L260.901,400L250.093,382.73L248.649,361.795L253.697,337.325L254.417,309.217L239.997,292.637L219.817,278.944L223.426,294.802L229.91,314.262L231.351,333.001L224.144,361.795L201.802,400L190.27,424.532L188.829,452.64L192.432,477.865L204.688,508.136L216.219,525.433L224.868,534.082L238.561,548.496L253.694,548.496L259.459,560.028L272.432,571.559L294.775,585.974L312.796,591.019L339.459,588.856L347.39,585.253L361.081,597.505L384.144,599.667L400,610.478L429.552,611.199L454.057,609.757L472.796,596.784L482.883,591.739L502.345,592.46L517.48,592.46L525.408,583.091L537.658,588.856L557.12,586.694L572.255,581.649L590.27,567.955L609.012,548.496L625.586,521.829L633.514,494.442L617.655,505.25L593.871,517.502L571.529,515.34L592.435,504.532L616.94,478.586L634.237,446.154L638.559,409.397L622.703,374.082L596.036,338.766L579.462,314.262L580.18,284.712L576.577,237.865L552.069,218.403L551.351,237.865L551.349,271.736L540.541,293.361L526.844,298.403L512.435,276.784L504.507,258.766L510.994,226.334L518.201,193.901L512.432,160.028L485.763,117.502L473.514,71.379L488.649,44.712L463.423,48.316L443.243,73.541L438.922,98.766L446.129,126.874L460.543,143.451L451.171,166.514L440.36,173.721L438.922,148.496L410.666,126.874L372.615,99.487L355.315,74.262L356.76,49.757L384.144,33.181L400,6.514L384.144,15.883Z" style="fill:rgb(255,136,67);stroke:black;stroke-width:1px;"/>
        <g transform="matrix(1,0,0,1,-2.88429,-6.48649)">
            <path d="M371.171,265.253L361.802,289.757L366.126,313.541L384.144,333.721L370.45,361.795L353.153,387.055L321.444,418.766L317.838,436.784L322.165,463.451L333.694,481.469L348.832,497.325L363.243,520.388L352.432,535.523L332.976,554.983L330.09,579.487L352.435,577.325L376.216,585.974L400,593.181L436.76,595.343L461.264,585.253L485.769,578.046L505.949,570.838L515.318,548.496L496.577,524.712L465.586,512.46L429.55,491.559L421.622,475.703L438.198,459.127L435.315,445.433L414.054,441.827C414.054,441.827 381.261,436.784 384.144,438.226C387.027,439.667 384.144,422.37 384.144,422.37L400,400L414.054,373.361L413.694,338.766L400,307.055L384.144,293.358L374.051,280.385C374.051,280.385 373.333,261.649 371.171,265.253" style="fill:rgb(255,212,67);stroke:black;stroke-width:1px;"/>
        </g>
        <g transform="matrix(1.70696,0,0,1.29333,103.937,41.2855)">
            <ellipse cx="28.832" cy="473.066" rx="20.901" ry="42.998"/>
        </g>
        <g transform="matrix(1.19646,0,0,1.13953,-58.1192,-102.363)">
            <ellipse cx="277.477" cy="723.271" rx="40.36" ry="46.486"/>
        </g>
        <g transform="matrix(1.29137,0,0,1.20383,-125.237,-160.231)">
            <ellipse cx="416.216" cy="743.978" rx="45.766" ry="47.734"/>
        </g>
        <g transform="matrix(1.09833,0,0,1.0892,-106.079,-58.8704)">
            <ellipse cx="609.73" cy="709.815" rx="43.964" ry="49.852"/>
        </g>
        <g transform="matrix(1.27388,0,0,1.31092,-181.837,-212.379)">
            <ellipse cx="669.191" cy="654.082" rx="26.305" ry="42.883"/>
        </g>
    </g>
</svg>
