<?xml version="1.0" encoding="UTF-8" standalone="no"?>
<!DOCTYPE svg PUBLIC "-//W3C//DTD SVG 1.1//EN" "http://www.w3.org/Graphics/SVG/1.1/DTD/svg11.dtd">
<svg width="100%" height="100%" viewBox="0 0 800 800" version="1.1" xmlns="http://www.w3.org/2000/svg" xmlns:xlink="http://www.w3.org/1999/xlink" xml:space="preserve" xmlns:serif="http://www.serif.com/" style="fill-rule:evenodd;clip-rule:evenodd;stroke-linecap:round;stroke-linejoin:round;stroke-miterlimit:1.5;">
    <g id="Layer1">
        <path d="M103.559,120.241L246.576,118.65L392.156,115.413L475.807,117.682L548.501,119.756L628.705,126.861L714.393,129.515L735.461,148.392L749.647,180.492L763.491,212.365L767.621,249.862L776.637,302.64L777.823,342.567L761.087,400L739.735,467.581L719.221,529.22L703.07,588.965L689.829,622.303L682.781,648.507L620.178,642.507L567.041,631.853L465.648,623.9L352.976,625.371L251.318,633.646L211.722,637.199L138.362,648.803L119.141,595.746L96.915,524.322L59.869,415.111L41.504,367.001L33.1,339.626L29.283,284.077L35.771,243.489L40.737,213.422L64.034,173.642L76.106,149.213L88.344,133.752L103.559,120.241Z" style="fill:rgb(255,208,42);stroke:black;stroke-width:1px;"/>
        <path d="M103.559,120.241L159.922,119.614L122.536,181.532L110.064,225.647L103.547,265.223L102.49,277.694L150.753,270.275L195.643,266.234L242.274,265.123L309.964,263.035L357.979,259.769L429.535,262.012L494.747,260.596L559.361,263.867L628.366,271.984L708.663,279.49L705.024,217.481L687.474,162.316L672.358,137.661L662.356,125.713C496.244,112.832 328.487,113.011 159.922,119.614" style="fill:rgb(193,99,40);stroke:black;stroke-width:1px;"/>
        <path d="M94.304,374.098L113.755,426.172L120.784,458.163L125.356,493.768L139.801,544.279L145.649,569.276L155.529,613.08L278.918,601.238L372.177,593.133L458.91,595.603L542.391,595.896L656.58,606.727L664.114,607.017L682.652,511.845L702.005,443.36L717.995,382.108L671.691,371.605L607.804,359.858L555.641,358.201L481.032,356.448L476.629,407.554L405.576,409.154L322.866,406.104L320.132,358.548L94.304,374.098Z" style="fill:rgb(193,99,40);stroke:black;stroke-width:1px;"/>
        <path d="M32.427,329.211C285.228,296.457 532.634,288.269 777.823,336.598" style="fill:none;stroke:black;stroke-width:1px;"/>
        <path d="M114.605,215.723C317.888,193.079 515.397,197.105 708.663,220.726" style="fill:none;stroke:black;stroke-width:1px;"/>
        <path d="M143.354,146.947C325.527,139.042 506.729,141.783 686.46,160.63" style="fill:none;stroke:black;stroke-width:1px;"/>
        <path d="M143.354,548.208C325.429,511.795 504.053,509.363 679.937,533.921" style="fill:none;stroke:black;stroke-width:1px;"/>
        <g transform="matrix(1,0,0,1,1.95025,1.99334)">
            <path d="M122.188,447.588C318.545,418.111 510.3,417.617 697.179,447.815" style="fill:none;stroke:black;stroke-width:1px;"/>
        </g>
        <path d="M391.717,364.22C386.857,361.963 383.468,356.907 383.468,351.038C383.468,343.068 389.716,336.598 397.411,336.598C405.106,336.598 411.353,343.068 411.353,351.038C411.353,356.907 407.965,361.963 403.105,364.22L407.346,385.082L387.475,385.082L391.717,364.22Z"/>
    </g>
</svg>
