<?xml version="1.0" encoding="UTF-8" standalone="no"?>
<!DOCTYPE svg PUBLIC "-//W3C//DTD SVG 1.1//EN" "http://www.w3.org/Graphics/SVG/1.1/DTD/svg11.dtd">
<svg width="100%" height="100%" viewBox="0 0 800 800" version="1.1" xmlns="http://www.w3.org/2000/svg" xmlns:xlink="http://www.w3.org/1999/xlink" xml:space="preserve" xmlns:serif="http://www.serif.com/" style="fill-rule:evenodd;clip-rule:evenodd;stroke-linejoin:round;stroke-miterlimit:1.41421;">
    <path d="M208.088,36.033L230.879,30.151L264.709,22.801L297.056,16.916L331.618,13.975C331.618,13.975 382.353,11.033 382.353,9.563C382.353,8.092 413.235,8.828 413.235,8.828L472.797,11.772C472.797,11.772 521.326,19.857 522.062,19.857C522.797,19.857 555.879,26.475 557.353,27.945C558.826,29.416 586.765,36.033 586.765,36.033L602.206,137.504C602.206,137.504 613.971,205.151 613.235,205.886C612.5,206.622 616.179,231.622 616.179,231.622L622.794,253.681L630.882,269.857L630.147,283.092L627.941,291.181C627.941,291.181 626.471,331.622 626.471,332.357C626.471,333.092 625,452.21 625,452.21L625.738,594.122C625.738,594.122 629.412,625.004 628.676,625.739C627.941,626.475 622.059,652.945 622.059,652.945C622.059,652.945 609.553,680.145 608.085,679.413C606.618,678.681 576.471,708.828 576.471,708.828L533.821,738.236C533.466,741.528 428.734,780.49 416.052,789.392C414.71,790.334 405.15,793.386 400,793.386C394.85,793.386 340.438,776.472 340.438,776.472C267.842,751.921 192.081,692.097 181.618,649.269L184.562,574.269L182.356,494.857L178.679,423.533L181.618,321.328L176.471,267.651L186.032,245.592L192.647,190.445C192.647,190.445 195.585,130.886 196.324,133.092C197.062,135.298 203.676,78.681 203.676,78.681L208.088,36.033Z" style="fill:rgb(157,162,169);"/>
    <g>
        <ellipse cx="269.079" cy="429.102" rx="6.288" ry="6.553"/>
        <g transform="matrix(1,0,0,1,2.54685,-0.728077)">
            <ellipse cx="327.77" cy="413.63" rx="7.463" ry="8.919"/>
        </g>
        <g transform="matrix(1,0,0,1,2.0015,0)">
            <ellipse cx="327.77" cy="463.685" rx="7.463" ry="6.917"/>
        </g>
        <ellipse cx="269.079" cy="477.519" rx="6.288" ry="6.917"/>
        <g transform="matrix(1.63636,0,0,1,-143.6,-2.18423)">
            <ellipse cx="223.655" cy="490.442" rx="2.002" ry="6.007"/>
        </g>
        <ellipse cx="194.351" cy="498.178" rx="2.185" ry="7.736"/>
        <ellipse cx="194.351" cy="447.85" rx="2.185" ry="6.007"/>
        <g transform="matrix(0.99146,-0.130408,0.130408,0.99146,-54.3836,32.352)">
            <ellipse cx="219.287" cy="439.75" rx="2.366" ry="8.1"/>
        </g>
        <g transform="matrix(1,0,0,1,2.00221,-4.00442)">
            <ellipse cx="220.288" cy="541.589" rx="3.367" ry="6.917"/>
        </g>
        <ellipse cx="193.259" cy="551.964" rx="1.092" ry="10.375"/>
        <g transform="matrix(1.19216,0,0,0.976744,-46.0043,12.1457)">
            <ellipse cx="264.974" cy="530.122" rx="4.732" ry="7.827"/>
        </g>
        <ellipse cx="329.955" cy="514.105" rx="6.735" ry="8.191"/>
        <ellipse cx="329.955" cy="564.706" rx="6.735" ry="8.191"/>
        <g transform="matrix(1.09849,0,0,1,-27.4003,-1.09212)">
            <ellipse cx="324.403" cy="616.218" rx="5.552" ry="6.917"/>
        </g>
        <ellipse cx="264.974" cy="630.415" rx="4.732" ry="7.281"/>
        <g transform="matrix(2.19629,0,0,1,-319.167,-2.18423)">
            <ellipse cx="267.34" cy="579.996" rx="2.366" ry="7.099"/>
        </g>
        <ellipse cx="222.382" cy="590.917" rx="3.64" ry="7.827"/>
        <g transform="matrix(1.12604,0,0,1.16667,-42.4369,-111.804)">
            <ellipse cx="330.546" cy="665.363" rx="6.143" ry="5.461"/>
        </g>
        <ellipse cx="458.279" cy="411.082" rx="7.28" ry="7.463"/>
        <ellipse cx="458.279" cy="463.321" rx="7.28" ry="6.553"/>
        <ellipse cx="458.279" cy="510.282" rx="7.28" ry="7.281"/>
        <g transform="matrix(0.999902,0,0,1.36352,3.32039,-210.079)">
            <ellipse cx="458.279" cy="566.89" rx="7.28" ry="6.007"/>
        </g>
        <g transform="matrix(0.689613,0,0,1,143.26,-2.91231)">
            <ellipse cx="461.554" cy="617.491" rx="10.556" ry="9.284"/>
        </g>
        <g transform="matrix(1.31021,0,0,1.02075,-141.146,-13.5583)">
            <ellipse cx="460.28" cy="662.086" rx="5.279" ry="8.737"/>
        </g>
        <ellipse cx="525.443" cy="426.371" rx="6.735" ry="7.827"/>
        <g transform="matrix(2,0,0,1,-518.709,0)">
            <ellipse cx="522.076" cy="471.876" rx="3.367" ry="8.555"/>
        </g>
        <g transform="matrix(1,0,0,1,0,-2.18423)">
            <ellipse cx="525.443" cy="529.576" rx="6.735" ry="7.281"/>
        </g>
        <g transform="matrix(1.42286,0,0,0.79646,-219.343,119.571)">
            <ellipse cx="523.442" cy="577.174" rx="4.733" ry="10.284"/>
        </g>
        <g transform="matrix(1,0,0,1,-4.00584,-4.36846)">
            <ellipse cx="531.723" cy="631.325" rx="6.28" ry="7.463"/>
        </g>
        <g transform="matrix(1,0,0,1,-0.636712,-2.18494)">
            <ellipse cx="573.132" cy="440.75" rx="3.823" ry="6.917"/>
        </g>
        <g transform="matrix(1,0,0,1,-0.636712,-2.91231)">
            <ellipse cx="573.132" cy="492.08" rx="3.823" ry="6.917"/>
        </g>
        <g transform="matrix(1,0,0,1,-4.45983,-3.64038)">
            <ellipse cx="577.591" cy="541.408" rx="4.46" ry="6.735"/>
        </g>
        <ellipse cx="577.591" cy="586.184" rx="4.46" ry="7.099"/>
        <ellipse cx="606.078" cy="445.483" rx="2.914" ry="7.646"/>
        <ellipse cx="606.078" cy="496.085" rx="2.914" ry="7.281"/>
        <g transform="matrix(2,0,0,1,-608.991,0)">
            <ellipse cx="607.535" cy="549.143" rx="1.457" ry="7.736"/>
        </g>
    </g>
    <g id="Layer1">
        <path d="M205.147,347.798C205.147,349.269 228.679,354.416 228.679,354.416L258.091,358.828L290.444,361.033L317.65,365.445L341.176,365.445L345.588,322.798L331.618,319.857L283.821,317.648L247.059,317.651L220.588,317.651L209.559,323.533L205.147,337.504L205.147,347.798"/>
        <path d="M435.271,321.793L462.662,320.039L497.062,317.648L528.998,315.098L558.983,313.45L575.159,313.486C581.834,313.724 586.411,314.903 587.5,317.648C589.844,322.795 590.794,328.337 591.361,333.252C592.382,342.1 590.287,347.755 578.674,349.266L533.28,359.866C515.656,360.132 499.386,365.638 481.538,367.04C474.613,367.584 458.999,367.717 451.477,367.677C444.83,367.642 440.034,367.337 439.661,367.738C436.006,371.667 435.039,355.652 436.032,352.945L435.271,321.793Z"/>
    </g>
</svg>
