<?xml version="1.0" encoding="UTF-8" standalone="no"?><!DOCTYPE svg PUBLIC "-//W3C//DTD SVG 1.1//EN" "http://www.w3.org/Graphics/SVG/1.1/DTD/svg11.dtd"><svg width="100%" height="100%" viewBox="0 0 671 797" version="1.1" xmlns="http://www.w3.org/2000/svg" xmlns:xlink="http://www.w3.org/1999/xlink" xml:space="preserve" xmlns:serif="http://www.serif.com/" style="fill-rule:evenodd;clip-rule:evenodd;stroke-linecap:round;stroke-linejoin:round;stroke-miterlimit:1.5;"><g id="Layer1"><path d="M155.28,153.889c-1.726,-1.727 -66.591,-17.294 -66.591,-17.294l-33.733,-12.112l-30.27,-13.838l-13.835,-12.969l0.004,10.378l0.865,18.162l6.919,26.811l10.375,25.081l19.023,32.862l19.031,27.679l14.702,17.297l3.463,23.351l7.784,13.838l12.969,19.027l19.031,11.243l6.915,18.163l-5.189,30.27l-9.513,48.432l-12.108,40.649l-11.244,33.73l-1.729,31.135l6.922,37.189l11.24,42.378l13.838,29.406l24.219,38.919l21.622,34.594l27.676,22.487l37.185,20.757l33.733,3.459l35.457,-1.73l23.354,-6.054l23.352,6.054l19.888,6.919l35.463,5.189l21.622,-9.513l29.405,-19.892l24.216,-19.027l19.889,-24.216l16.432,-35.46l7.784,-23.351l5.189,-21.622l14.703,-30.27l7.787,-32.865l-9.517,-39.784l-20.753,-66.594l-9.514,-63.135l0.865,-30.271l3.46,-6.919l12.108,-6.918l13.834,-13.838c0,0 12.112,-7.784 6.058,-12.973c-6.055,-5.189 10.371,-15.571 10.371,-15.571l10.385,-21.618l19.024,-29.406l20.757,-29.405l14.702,-29.406l12.973,-19.027l8.649,-40.648l-45.841,18.158l-46.7,16.436l-36.324,14.703l-25.946,3.459l-22.483,-58.81l-57.084,-51.892l-35.46,-19.892l-62.27,-13.838l-52.76,22.483l-44.973,24.216l-32,26.811l-21.618,25.949c0,0 -6.061,24.21 -7.788,22.484Z" style="fill:#23680e;stroke:#000;stroke-width:0.75px;"/><path d="M81.774,212.703l26.81,6.919l31.136,10.378l8.645,26.811l-6.916,28.54l-17.3,1.73l-15.571,-24.22l-14.7,-23.347l-12.104,-26.811Z" style="fill:#153e08;stroke:#000;stroke-width:0.75px;"/><path d="M530.639,249.892c-0.004,1.73 -10.386,13.834 -10.386,13.834l-7.78,23.355l6.057,21.622l9.514,0l18.162,-21.622l11.243,-23.351l10.375,-25.946l-15.567,2.594c0,0 -21.615,7.784 -21.618,9.514Z" style="fill:#153e08;stroke:#000;stroke-width:0.75px;"/><path d="M293.666,349.351c-0.004,0 -6.919,-32 -6.919,-32l19.023,11.244l1.73,19.891c0,0 -13.831,0.865 -13.834,0.865Z" style="fill:#153e08;stroke:#000;stroke-width:0.75px;"/><path d="M352.473,325.135l-12.973,8.216l0,16l14.703,0l-1.73,-24.216Z" style="fill:#133b06;stroke:#000;stroke-width:0.75px;"/><path d="M174.314,398.649c0,1.729 68.321,99.459 68.321,99.459l3.46,19.892c0,0 1.729,17.297 1.729,18.162c0,0.865 0,7.784 0,14.703c0,6.919 -23.348,10.377 -23.348,10.377l-18.162,6.918c0,0 -19.902,-37.194 -21.628,-38.92c-1.727,-1.726 -17.291,-66.591 -17.291,-66.591c0,0 6.919,-65.73 6.919,-64Z" style="fill:#e4e5a6;stroke:#000;stroke-width:0.75px;"/><path d="M265.986,447.081l20.761,39.78c0,0 13.837,28.548 10.376,29.413c-3.461,0.865 0,25.939 0,25.939l-10.376,-1.727c3.343,11.031 -26.42,5.884 -29.409,3.46c-1.9,-1.541 -9.514,-37.189 -9.514,-37.189l7.787,-34.591l10.375,-25.085Z" style="fill:#e4e5a6;stroke:#000;stroke-width:0.75px;"/><path d="M383.608,274.539c-0.865,-2.161 26.811,-26.377 26.811,-26.377l14.706,0l19.89,14.703l0,11.674l-12.978,15.133l-8.648,11.244l-12.97,0l-26.811,-26.377" style="fill:#133b06;stroke:#000;stroke-width:0.75px;"/><path d="M201.986,248.162l25.085,9.514l29.405,6.919l17.294,6.919l-13.834,15.567l-19.034,13.835l-20.753,-6.916l-18.163,-8.649l-10.378,-17.297l10.378,-19.892Z" style="fill:#153e08;stroke:#000;stroke-width:0.75px;"/><path d="M148.365,483.388l19.03,23.369l12.966,10.375l14.707,19.03l5.189,25.08l-6.923,6.918l-25.939,0l-19.027,-20.879l2.591,-27.551l-2.594,-36.342Z" style="fill:#e4e5a6;stroke:#000;stroke-width:0.75px;"/><path d="M326.095,539.622l13.405,-13.848l6.916,-19.017l-6.916,-23.369l-13.405,-8.635l0,22.428l-15.136,9.576l-2.594,10.378l1.733,8.639l3.456,7.794l12.541,6.054Z" style="fill:#e4e5a6;stroke:#000;stroke-width:0.75px;"/><path d="M389.666,497.181l6.05,19.954l3.46,8.639l-0.869,21.507l-3.456,13.961l-29.405,-13.961l-19.03,-7.659l10.381,-13.848l14.706,0l7.784,-18.587l10.379,-10.006Z" style="fill:#e4e5a6;stroke:#000;stroke-width:0.75px;"/><path d="M477.878,474.753l-19.027,8.635l-15.567,13.793l-12.973,10.007l-16.433,18.586l-3.459,13.848l1.73,12.973l18.165,8.647c0,0 23.352,5.187 23.352,0c0,-5.188 15.567,0 15.567,0l6.912,-21.62l-0.861,-32.434l4.327,-23.783l-1.733,-8.652Z" style="fill:#e4e5a6;stroke:#000;stroke-width:0.75px;"/><path d="M495.176,561.242l1.726,-21.62l-2.591,-20.472l-14.7,10.061l0,10.411l-15.57,38.054l31.135,-16.434Z" style="fill:#e4e5a6;stroke:#000;stroke-width:0.75px;"/><path d="M148.365,506.757c-0.865,0 12.973,36.324 12.973,36.324l19.027,19.027l44.108,-8.649l36.328,-16.432l46.699,-0.865l53.622,1.73l51.892,12.108l57.945,4.324l23.352,-2.594l18.162,2.594l12.973,12.973l-6.054,22.487l-23.348,21.621l-28.547,4.321l-51.889,-19.023l-34.598,-17.301l-73.51,0l-72.652,12.108l-35.456,16.436l-36.324,-11.243l-27.676,-25.081l-8.649,-38.919c0,0 22.487,-25.946 21.622,-25.946Z" style="fill:#153e08;stroke:#000;stroke-width:0.75px;"/></g></svg>