<?xml version="1.0" encoding="UTF-8"?>
<svg viewBox="0 0 128 174.03" xmlns="http://www.w3.org/2000/svg" xmlns:xlink="http://www.w3.org/1999/xlink">
 <defs>
  <linearGradient id="r" x1="1.5267" x2="-.076338" y1=".5" y2="1.0723" xlink:href="#a"/>
  <linearGradient id="z" x1=".5" x2="-.031825" y1=".5" y2="1.0723" xlink:href="#a"/>
  <linearGradient id="ac" x1=".5" x2=".34945" y1=".5" y2=".87288" xlink:href="#a"/>
  <linearGradient id="y" x1=".5" x2=".34945" y1=".5" y2=".87289" xlink:href="#a"/>
  <linearGradient id="aa" x1=".21596" x2=".65867" y1=".47709" y2=".50576" xlink:href="#s"/>
  <linearGradient id="t" x1=".5" x2=".57167" y1=".5" y2="1.0919" xlink:href="#a"/>
  <linearGradient id="ab" x1="1.4234" x2="0" y1=".44234" y2=".66307" xlink:href="#s"/>
  <linearGradient id="m" x1=".5" x2=".32425" y1=".5" y2=".77855" xlink:href="#a"/>
  <linearGradient id="n" x1=".5" x2=".33956" y1=".5" y2=".82554" xlink:href="#a"/>
  <linearGradient id="a">
   <stop stop-color="#babdb6" offset="0"/>
   <stop stop-color="#888a85" offset="1"/>
  </linearGradient>
  <linearGradient id="s">
   <stop stop-color="#9f6a15" offset="0"/>
   <stop stop-color="#9f6a15" stop-opacity="0" offset="1"/>
  </linearGradient>
  <linearGradient id="x" x1="1" x2=".2647" y1=".75121" y2="-.10265">
   <stop stop-color="#8f5902" offset="0"/>
   <stop stop-color="#8f5902" stop-opacity=".02" offset="1"/>
  </linearGradient>
  <linearGradient id="w" x1=".5217" x2=".5217" y1=".54289" y2=".92407">
   <stop stop-color="#e9b96e" offset="0"/>
   <stop stop-color="#e9b96e" stop-opacity="0" offset="1"/>
  </linearGradient>
  <linearGradient id="v" x1=".38771" x2=".75288" y1=".27996" y2=".80006">
   <stop stop-color="#e9b96e" offset="0"/>
   <stop stop-color="#8f5902" offset="1"/>
  </linearGradient>
  <radialGradient id="u" cx="164.42" cy="304.79" r="16.5" gradientTransform="matrix(1 2.4398e-7 -3.0313e-7 1.2424 -147.15 -71.362)" gradientUnits="userSpaceOnUse">
   <stop stop-color="#ffffc0" offset="0"/>
   <stop stop-color="#ffffc0" stop-opacity="0" offset="1"/>
  </radialGradient>
 </defs>
 <path d="m72.86 1.3574s-58.424 3.6761-45.593 21.903c10.059 14.289 26.04 20.493 15.699 28.014 0 0-100.21 102 10.247 117.88 86.727 16.504 99.713-80.168 22.655-118.64 0.94005-15.605 29.894-50.575-3.0082-49.165z" fill="url(#v)" stroke="#000" stroke-width="2.632"/>
 <path d="m38.816 70.907c-15.171 0.315-53.047 66.517-11.685 85.788-13.631-27.262 3.9102-74.047 11.685-85.788z" fill="url(#w)"/>
 <path d="m81.326 54.379c-0.25584 0.59622-0.47874 1.1611-0.65803 1.7274 34.702 30.636 42.357 70.802 30.763 98.541 23.558-24.934 14.963-73.198-30.105-100.27z" fill="url(#x)"/>
 <path d="m36.826 9.2474c-1.5114 0.27199-6.129 2.9392-7.3674 3.7914-1.7855 1.4347-3.9271 3.3514-3.5713 5.893 0.48311 2.7715 2.5389 4.8907 4.2615 6.989 3.816 4.2598 7.8006 8.3772 11.981 12.28 1.1134 1.0127 2.2976 2.1027 3.8607 2.2154 0.95761 1.2956 2.7074 0.91888 4.1299 0.88501 1.1464-0.21836 3.1742 0.4049 3.6792 0.35293-7.6274-10.443-25.066-24.088-16.974-32.407z" fill="url(#aa)"/>
 <path d="m81.728 2.9995c-6.0937 13-12.188 26-18.281 39 1.6876 0.2318 3.054-1.2057 4.9149-0.8023 1.6015-0.091602 3.3427 0.1824 4.818-0.5725 1.099-1.3962 3.1552-0.4721 4.3711-1.6669 2.0951-2.0371 3.0147-4.9239 4.2085-7.5208 2.2489-5.5607 4.7443-11.088 5.997-16.981 0.5422-2.9294 0.5236-6.2774-1.2796-8.7902-1.1712-1.4348-2.9827-2.2493-4.7486-2.6662h-9.9e-5z" fill="url(#ab)"/>
 <path d="m62.77 145.55c-0.32805 0.32806-7.0528-5.6296-7.4907-5.4763-0.43791 0.15324-1.981 9.0039-2.442 8.952-0.46103-0.05191 0.004269-9.0241-0.38883-9.2709-0.39283-0.24686-8.2747 4.065-8.5215 3.6722-0.24684-0.39285 7.0578-5.6233 7.0059-6.0843-0.051922-0.46104-8.3373-3.9349-8.1841-4.3728 0.15323-0.43791 8.7969 2.012 9.125 1.6839 0.32806-0.32808-2.1218-8.9718-1.6839-9.125 0.43791-0.15324 3.9118 8.1322 4.3728 8.1841 0.46103 0.051926 5.6915-7.2527 6.0843-7.0059 0.39284 0.24683-3.919 8.1287-3.6722 8.5215 0.24684 0.39282 9.219-0.07222 9.2709 0.38882 0.05191 0.46103-8.7987 2.0041-8.952 2.442-0.15323 0.43793 5.8044 7.1627 5.4763 7.4907z" fill="url(#u)"/>
 <g stroke-linejoin="round">
  <path d="m77.688 42.335c-0.26251 0.15173-0.47716 0.37421-0.5625 0.65625l-0.25 0.8125-2.5-0.34375c-0.50411-0.06522-1.0816 0.26593-1.3125 0.71875l-4.3125 8.4062c-0.23094 0.45282-0.003998 0.87228 0.5 0.9375l2.9688 0.40625c0.50409 0.065182 1.1128-0.26593 1.3438-0.71875l1.125-2.1875-0.28125 0.875c-0.14487 0.4787 0.15611 0.875 0.65625 0.875h2.2812c0.50012 0 1.0114-0.3963 1.1562-0.875l0.3125-1c-0.91296-0.48612-1.8415-0.96839-2.7812-1.4375 0.1248-2.0719 0.7541-4.5008 1.6562-7.125zm-31.562 0.9375c0.92548 2.38 0.26268 4.5874-2.9688 6.9375 0 0-1.3873 1.4244-3.4375 3.6875h2.8438c0.4781 0 0.99031-0.32089 1.2188-0.75l-0.625 1.2188c-0.24515 0.4787-7e-3 0.875 0.53125 0.875h5c0.53781 0 1.1611-0.3963 1.4062-0.875l4.5625-8.9062c0.24513-0.4787 7e-3 -0.875-0.53125-0.875h-5c-0.53781 0-1.1611 0.3963-1.4062 0.875l-3.8125 7.4688 3.5312-8.8125c0.19319-0.4787-0.077499-0.84375-0.59375-0.84375h-0.71875zm19.875 1.5938c-0.53781 0-1.1924 0.36505-1.4375 0.84375l-4.5625 8.9062c-0.24515 0.4787-7e-3 0.875 0.53125 0.875h5c0.53781 0 1.1611-0.3963 1.4062-0.875l4.5625-8.9062c0.24513-0.4787 0.007004-0.84375-0.53125-0.84375h-4.9688zm-9.1875 0.5625c-0.54833 0-1.2014 0.3963-1.4688 0.875l-4.9688 8.9062c-0.26741 0.4787-0.048309 0.84375 0.5 0.84375h5.5938c0.54832 0 1.2013-0.36505 1.4688-0.84375l4.9688-8.9062c0.26739-0.4787 0.04829-0.875-0.5-0.875h-5.5938z" fill="#2e3436" opacity=".301" stroke="#2e3436" stroke-width="1.538"/>
  <g stroke="#000">
   <rect transform="matrix(1 0 -.45581 .89008 0 0)" x="86.092" y="47.652" width="6.9239" height="11.953" rx=".97078" ry=".97078" fill="url(#m)" stroke-width="1.63"/>
   <rect transform="matrix(1 0 -.48767 .87303 0 0)" x="79.206" y="49.241" width="7.5526" height="12.187" rx=".98974" ry=".98974" fill="url(#n)" stroke-width="1.646"/>
   <rect transform="matrix(1 0 -.28966 .95713 0 0)" x="88.742" y="41.474" width="4.0918" height="11.116" rx=".90277" ry=".90277" fill="url(#r)" stroke-width="1.572"/>
   <rect transform="matrix(.99174 .12828 -.45433 .89083 0 0)" x="88.628" y="33.163" width="4.8283" height="11.297" rx=".91751" ry=".91751" fill="url(#t)" stroke-width="1.585"/>
   <rect transform="matrix(1 0 -.45581 .89008 0 0)" x="69.107" y="47.355" width="6.9239" height="11.953" rx=".97078" ry=".97078" fill="url(#y)" stroke-width="1.63"/>
   <rect transform="matrix(1 0 -.37427 .92732 0 0)" x="58.149" y="44.025" width="5.457" height="11.473" rx=".93179" ry=".93179" fill="url(#z)" stroke-width="1.597"/>
  </g>
  <path d="m79.412 55.608c-0.042999 0.37777 0.18448 0.80722 0.52582 0.97473l6.348 3.1281c0.34132 0.16751 0.64544 0.007999 0.68844-0.36932l0.263-2.2278c0.042999-0.37781-0.19097-0.8378-0.53226-1.0053l-2.6683-1.2878 0.5409 0.141c0.35968 0.10285 0.63771-0.11111 0.63196-0.48516l-5.7976 1.1315zm2.1917 2.5067c-0.11572 0.073299-0.17 0.21753-0.16691 0.41864l0.0541 3.7258c0.005997 0.40228 0.30663 0.86273 0.66747 1.0406l6.7055 3.3079c0.36085 0.17786 0.65756 0.009003 0.65138-0.39343l-0.0541-3.7259c-0.005997-0.40226-0.30666-0.86271-0.66748-1.0406l-6.712-3.3385c-0.18042-0.088898-0.36229-0.067909-0.47798 0.005001v4.01e-4zm1.6361 6.5213c-0.11577 0.070282-0.17006 0.21359-0.16692 0.41864l0.053 4.1732c0.005997 0.41012 0.31934 0.90722 0.68042 1.1017l6.7091 3.6266c0.36112 0.19449 0.6577 0.016685 0.6514-0.39343l-0.053-4.1733c-0.006012-0.41013-0.31935-0.90723-0.68044-1.1017l-6.7091-3.6266c-0.18056-0.097198-0.36871-0.09549-0.48449-0.025177h2.3e-5zm-0.8104 6.4323c-0.23224-0.005005-0.38554 0.16225-0.3809 0.46393l0.0606 3.7564c0.006004 0.40228 0.30664 0.86273 0.66748 1.0406l6.7055 3.308c0.36085 0.17783 0.65111-0.02179 0.64491-0.42401l-0.0541-3.7259c-0.005997-0.40225-0.30664-0.8627-0.6675-1.0405l-6.7055-3.308c-0.090096-0.044525-0.19307-0.068726-0.27048-0.070496h-1.5e-5z" fill="#2e3436" opacity=".365" stroke="#2e3436" stroke-width="1.538"/>
  <g transform="matrix(.14367 -.7341 .7341 .14367 -51.284 325.63)" stroke="#000">
   <rect transform="matrix(1 0 -.45581 .89008 0 0)" x="438.62" y="112.59" width="6.9239" height="11.953" rx=".97078" ry=".97078" fill="url(#m)" stroke-width="2.179"/>
   <rect transform="matrix(1 0 -.48767 .87303 0 0)" x="435.06" y="117.15" width="7.5526" height="12.187" rx=".98974" ry=".98974" fill="url(#n)" stroke-width="2.2"/>
   <rect transform="matrix(1 0 -.28966 .95713 0 0)" x="429.58" y="98.967" width="4.0918" height="11.116" rx=".90277" ry=".90277" fill="url(#r)" stroke-width="2.101"/>
   <rect transform="matrix(.99174 .12828 -.45433 .89083 0 0)" x="421.87" y="48.637" width="4.8283" height="11.297" rx=".91751" ry=".91751" fill="url(#t)" stroke-width="2.119"/>
   <rect transform="matrix(1 0 -.45581 .89008 0 0)" x="421.5" y="113.23" width="6.9239" height="11.953" rx=".97078" ry=".97078" fill="url(#ac)" stroke-width="2.179"/>
  </g>
 </g>
 <path d="m97.188 99.391c-0.46069 0.4607-9.904-7.9054-10.519-7.6902-0.61494 0.21519-2.7819 12.644-3.4293 12.571-0.64742-0.072906 0.005997-12.672-0.54601-13.019-0.55167-0.34665-11.62 5.7084-11.966 5.1567-0.34664-0.55167 9.911-7.8966 9.8381-8.544-0.072906-0.64743-11.708-5.5257-11.493-6.1406 0.21517-0.61496 12.353 2.8253 12.814 2.3646 0.4607-0.46069-2.9796-12.599-2.3646-12.814 0.61495-0.21517 5.4932 11.42 6.1406 11.493 0.6474 0.072906 7.9924-10.185 8.544-9.8381 0.55165 0.34662-5.5033 11.415-5.1567 11.966 0.34663 0.55164 12.946-0.10141 13.019 0.54603 0.072891 0.6474-12.356 2.8143-12.571 3.4293-0.21517 0.61496 8.1509 10.058 7.6902 10.519z" fill="url(#u)"/>
</svg>
