<?xml version="1.0" encoding="UTF-8" standalone="no"?>
<!DOCTYPE svg PUBLIC "-//W3C//DTD SVG 1.1//EN" "http://www.w3.org/Graphics/SVG/1.1/DTD/svg11.dtd">
<svg width="100%" height="100%" viewBox="0 0 800 800" version="1.1" xmlns="http://www.w3.org/2000/svg" xmlns:xlink="http://www.w3.org/1999/xlink" xml:space="preserve" xmlns:serif="http://www.serif.com/" style="fill-rule:evenodd;clip-rule:evenodd;stroke-linejoin:round;stroke-miterlimit:1.41421;">
    <path d="M333.387,467.843L323.136,476.95L316.093,487.776L309.964,503.025L309.183,522.728L309.027,549.65L325.075,572.453L343.885,589.818L362.655,607.169L369.853,615.398L388.238,621.904L400,621.085L417.31,623.34L445.445,620.201L470.465,609.683L495.499,588.767L503.464,557.169L509.697,531.873L499.762,492.866L488.557,468.138L477.462,451.327L476.224,436.891L480.986,427.597L495.539,410.636L509.372,393.653L511.363,379.705L512.902,367.903L509.165,350.259L494.606,330.17L489.287,315.059L471.723,299.357L451.919,296.855L417.854,290.12L385.26,288.356L363.787,288.158L351.382,300.494L333.284,317.98L327.298,327.602L325.784,343.13L323.776,360.154L322.225,387.753L333.263,400L343.902,411.004L351.336,420.178L357.7,426.112L357.31,437.865L349.563,443.026L344.528,448.191L337.592,455.179L333.387,467.843Z" style="fill:rgb(255,0,243);"/>
    <g transform="matrix(1,0,0,1,1.91291,7.75218)">
        <path d="M370.936,288.158L367.94,253.613L379.509,238.026L389.39,237.357L400,237.914L410.965,244.012L410.965,288.158L370.936,288.158" style="fill:rgb(255,0,243);"/>
    </g>
    <g transform="matrix(1,0,0,1,-0.0412045,7.75218)">
        <path d="M459.266,295.91L458.973,269.244L457,253.539L448.975,244.282L435.728,237.357L423.687,237.357L422.28,246.565L421.223,262.757L419.603,271.312L418.477,280.317L417.351,288.158L459.266,295.91" style="fill:rgb(255,0,243);"/>
    </g>
    <path d="M320.591,382.06L280.882,379.119L240.441,381.325L196.324,400L162.5,423.972L122.059,452.808L87.5,485.737L61.765,510.737L63.238,526.913L81.621,526.913L97.797,518.09L119.856,494.56L150.738,465.884L176.471,443.825L202.944,421.031L223.532,409.266L252.944,407.795L283.826,407.795L309.027,410.001L336.032,400" style="fill:rgb(255,0,243);"/>
    <path d="M369.853,428.123L336.032,423.969L309.027,446.763L277.938,474.704L260.294,501.178L249.265,526.913L241.912,564.413L234.559,606.325L224.265,686.472L223.527,716.616L234.556,725.44L247.794,712.207L250,694.56L252.938,662.94L255.882,626.178L263.235,592.354L271.324,560.737L277.206,536.472L291.174,518.822L299.262,501.91L309.027,499.707" style="fill:rgb(255,0,243);"/>
    <path d="M459.266,432.063C457.792,429.857 496.326,438.678 496.326,438.678L515.444,453.016L526.471,476.178L542.647,503.384L557.353,540.884L558.824,578.384L566.912,620.295L566.912,641.619L572.794,674.707L579.412,708.531L578.676,725.44L569.853,733.531L555.885,725.44L549.268,706.325L548.527,686.469L547.059,661.472L544.121,629.119L538.971,600.443L533.091,569.926L529.409,540.881L519.85,519.557L506.618,508.531" style="fill:rgb(255,0,243);"/>
    <path d="M508.088,388.678L541.179,393.825L572.797,400L597.794,414.413L623.529,414.413L636.765,436.472L659.562,460.737L678.679,481.325L697.059,499.707L715.444,526.913L730.15,537.207L742.65,551.178L737.5,560.001L722.791,561.469L706.618,546.031L692.647,526.913L669.115,502.646L642.647,471.766L614.709,446.031L579.412,428.123L541.912,421.766L513.971,414.413L480.882,417.354L481.621,407.06L512.902,379.119L531.565,367.903L555.882,348.972L585.294,315.884L597.794,288.158L625.738,265.148L651.471,231.325L680.882,201.913L708.826,168.09L726.473,148.972L739.709,135.737L738.971,115.148L724.262,119.557L697.794,138.678L667.647,176.178L630.885,218.09L593.382,251.178L563.235,273.972L552.941,288.158L544.118,309.266L531.565,326.913L544.115,288.158L548.529,243.09L554.415,218.09L564.706,183.531L579.412,151.178L597.797,111.472L611.768,83.531L625,53.384L638.235,23.972L632.353,9.266L615.441,13.678L604.412,26.178L592.647,54.119L579.412,87.943L566.176,119.56L541.912,157.06L522.794,189.413L512.902,218.09L505.882,248.972L512.902,277.648L503.676,296.766L496.324,288.158L498.529,259.266L494.853,244.56L483.718,231.322L483.718,204.854L483.718,164.413L483.718,126.913L475.003,110.737L465.444,113.678L458.824,126.913L459.559,156.325L461.768,180.59L459.559,203.384L458.826,225.443L461.765,244.56L470.591,255.59L477.203,267.351L475.735,279.854L468.385,288.158C468.385,288.158 461.029,298.237 461.765,298.237L462.967,295.91" style="fill:rgb(255,0,243);"/>
    <path d="M333.085,390.881C309.643,381.843 286.991,365.651 292.647,367.903L275,348.237L251.471,322.501L230.147,295.91L208.826,266.633L185.297,246.766L158.088,218.09L133.091,188.678L110.294,169.56L92.65,151.913L80.147,134.266L80.15,118.825L95.591,121.031L111.768,128.384L122.059,143.825L136.029,159.266L155.885,178.384L171.326,196.031L190.444,217.354L209.562,237.357L229.415,249.707L249.265,266.633L259.562,274.707L271.324,288.158L284.559,311.472L288.235,295.91L278.676,257.06L272.794,225.443L269.853,197.501L253.676,162.207L238.971,123.972L223.532,91.619L209.562,64.413L200,40.884L198.529,20.295L210.294,9.266L224.265,19.56L230.879,31.322L237.5,54.119L243.382,71.766L253.676,97.501L259.559,117.354L271.324,140.884L283.824,162.207L294.853,182.06L302.941,203.384L309.027,218.822L315.441,237.357L315.441,266.633L319.118,278.384L325.735,266.633L331.618,237.357L338.235,217.354L339.706,188.678L337.503,154.854L338.235,121.766L350.003,107.795L361.032,112.207L362.5,124.707L362.5,147.501L365.441,168.825L365.444,193.09L368.382,210.001L369.118,229.854L364.703,247.498L353.679,251.916L355.879,261.469L356.621,270.509L361.768,278.384L369.853,298.606C369.853,298.606 373.386,303.085 377.502,304.337" style="fill:rgb(255,0,243);"/>
    <g transform="matrix(1,0,0,0.549222,0,262.632)">
        <rect x="400" y="390.148" width="20.591" height="192.471"/>
    </g>
    <g transform="matrix(1,0,0,1,-3.37345,77.944)">
        <rect x="369.853" y="440.148" width="88.971" height="22.794"/>
    </g>
</svg>
