<?xml version="1.0" encoding="UTF-8" standalone="no"?>
<!DOCTYPE svg PUBLIC "-//W3C//DTD SVG 1.1//EN" "http://www.w3.org/Graphics/SVG/1.1/DTD/svg11.dtd">
<svg width="100%" height="100%" viewBox="0 0 800 800" version="1.1" xmlns="http://www.w3.org/2000/svg" xmlns:xlink="http://www.w3.org/1999/xlink" xml:space="preserve" xmlns:serif="http://www.serif.com/" style="fill-rule:evenodd;clip-rule:evenodd;stroke-linejoin:round;stroke-miterlimit:1.41421;">
    <g transform="matrix(-0.818468,-0.712831,0.662838,-0.761066,531.46,795.046)">
        <path d="M418.385,494.371L303.679,494.371L332.356,63.489L395.541,63.489L418.385,494.371Z" style="fill:rgb(153,153,153);"/>
    </g>
    <g transform="matrix(0.704028,0.760224,0.742079,-0.687225,25.3764,304.873)">
        <path d="M418.385,494.371L303.679,494.371L332.356,63.489L401.282,63.489L418.385,494.371Z" style="fill:rgb(153,153,153);"/>
    </g>
    <g id="Layer1">
        <g transform="matrix(-0.71546,-0.698654,0.698654,-0.71546,81.4137,1510.88)">
            <path d="M597.841,781.136L480.885,781.136L496.166,647.312L582.561,647.312L597.841,781.136Z"/>
        </g>
        <g transform="matrix(0.60149,0.575257,-0.731015,0.764351,335.106,321.931)">
            <rect x="85.297" y="321.577" width="80.879" height="22.059" style="fill:rgb(127,79,29);"/>
        </g>
        <g transform="matrix(0.60149,0.575257,-0.731015,0.764351,359.393,298.156)">
            <rect x="85.297" y="321.577" width="80.879" height="22.059" style="fill:rgb(127,79,29);"/>
        </g>
        <g transform="matrix(1.55381,-1.11022e-16,0,1.57944,-78.7436,-428.228)">
            <circle cx="127.574" cy="712.386" r="43.75"/>
        </g>
        <g transform="matrix(0.60149,0.575257,-0.731015,0.764351,382.306,272.441)">
            <rect x="85.297" y="321.577" width="80.879" height="22.059" style="fill:rgb(127,79,29);"/>
        </g>
        <g transform="matrix(0.765853,0.768256,-0.635127,0.63314,308.244,-458.012)">
            <path d="M630.516,68.636L748.532,290.694L512.5,290.694L630.516,68.636Z"/>
        </g>
        <g transform="matrix(0.713336,0.700822,-0.700822,0.713336,392.056,-254.455)">
            <rect x="471.324" y="120.103" width="17.644" height="496.326"/>
        </g>
        <g transform="matrix(0.964105,0.83093,-0.570779,0.662259,131.944,-352.443)">
            <rect x="471.324" y="120.103" width="17.644" height="496.326"/>
        </g>
        <g transform="matrix(0.884887,1.01496,-0.655121,0.571164,342.857,-263.778)">
            <rect x="471.324" y="120.103" width="17.644" height="496.326"/>
        </g>
        <g transform="matrix(1.01684,0,0,1.03361,-10.2408,-39.3898)">
            <circle cx="127.574" cy="712.386" r="43.75" style="fill:rgb(153,153,153);"/>
        </g>
        <g transform="matrix(0.403598,0.787417,-1.01873,0.522159,575.734,-456.319)">
            <path d="M626.838,102.459C626.838,102.459 572.794,228.257 572.794,259.331C572.794,282.386 597.01,301.103 626.838,301.103C656.666,301.103 680.882,282.386 680.882,259.331C680.882,228.257 626.838,102.459 626.838,102.459Z" style="fill:rgb(153,153,153);"/>
        </g>
        <g transform="matrix(-0.781162,-0.379653,-0.499824,1.02842,1264.43,222.988)">
            <path d="M626.838,102.459C626.838,102.459 572.794,212.775 572.794,260.053C572.794,282.709 597.01,301.103 626.838,301.103C656.666,301.103 680.882,282.709 680.882,260.053C680.882,212.775 626.838,102.459 626.838,102.459Z" style="fill:rgb(153,153,153);"/>
        </g>
        <g transform="matrix(0.712506,0.701666,-0.701666,0.712506,339.553,-42.2141)">
            <rect x="204.412" y="417.867" width="330.396" height="110.08"/>
        </g>
        <g transform="matrix(0.648635,0.638766,-0.541613,0.549981,287.225,57.4766)">
            <rect x="204.412" y="417.867" width="330.396" height="110.08" style="fill:rgb(153,153,153);"/>
        </g>
    </g>
</svg>
