<?xml version="1.0" encoding="UTF-8" standalone="no"?>
<!DOCTYPE svg PUBLIC "-//W3C//DTD SVG 1.1//EN" "http://www.w3.org/Graphics/SVG/1.1/DTD/svg11.dtd">
<svg width="100%" height="100%" viewBox="0 0 800 800" version="1.1" xmlns="http://www.w3.org/2000/svg" xmlns:xlink="http://www.w3.org/1999/xlink" xml:space="preserve" xmlns:serif="http://www.serif.com/" style="fill-rule:evenodd;clip-rule:evenodd;stroke-linejoin:round;stroke-miterlimit:1.41421;">
    <g transform="matrix(1.12329,0,0,1.12329,-67.3099,-30.3959)">
        <path d="M400,683.337L368.291,686.22L331.534,690.544L278.919,686.941L232.075,684.778L207.568,679.733L170.811,645.139L162.886,611.265L167.928,548.562L178.739,494.508L193.153,423.157L208.288,365.68L228.471,303.517L263.066,180.274L296.216,133.427L352.435,88.742L386.306,62.076L407.928,58.472L439.64,66.4L453.333,72.166L467.027,80.094L482.886,88.742L502.345,95.229L523.243,111.085L545.588,137.031L571.532,179.553L582.342,209.103L596.036,242.256L607.568,299.193L616.216,337.391L622.703,378.472L633.514,413.787C633.514,413.787 644.33,433.247 644.327,435.409C644.324,437.571 655.135,460.634 655.135,460.634L664.505,490.904L668.829,519.013C668.829,519.013 668.834,544.238 668.832,546.4C668.829,548.562 669.555,558.652 668.832,560.814C668.108,562.977 668.108,592.526 668.108,592.526L664.505,632.886L643.604,666.04L587.387,700.634L544.144,707.121L501.624,707.841L468.466,699.19L449.006,687.658L428.111,692.706L400,705.679L390.633,705.679L410.811,686.941L425.949,674.688L400,683.337" style="fill:rgb(92,15,121);"/>
    </g>
    <g transform="matrix(1.12329,0,0,1.12329,-67.3099,-30.3959)">
        <path d="M423.06,673.244C419.723,665.009 380.759,671.333 381.256,673.965L322.159,681.893L263.784,677.571L226.306,676.85L212.613,668.202L188.108,646.58L177.3,615.589L185.228,596.13L198.198,575.95L211.174,556.49L219.099,540.634L223.423,521.895L229.913,504.598L247.21,477.211L259.459,455.589L278.919,439.733L303.426,424.598L335.135,410.904L371.174,400L406.486,383.157L471.354,383.157L492.97,400L518.922,413.787L534.057,432.526L552.793,457.751L562.883,480.814L575.856,503.877L589.55,526.22L602.525,544.959L619.102,569.463L634.955,591.805L651.529,625.676L642.159,653.064L590.988,684.776L568.649,689.103L531.895,690.544L495.135,686.941L466.303,683.334L446.847,673.247L430.988,664.598C430.988,664.598 424.001,675.565 423.06,673.244Z" style="fill:rgb(32,18,37);"/>
    </g>
</svg>
