<?xml version="1.0" encoding="UTF-8" standalone="no"?>
<!DOCTYPE svg PUBLIC "-//W3C//DTD SVG 1.1//EN" "http://www.w3.org/Graphics/SVG/1.1/DTD/svg11.dtd">
<svg width="100%" height="100%" viewBox="0 0 800 800" version="1.1" xmlns="http://www.w3.org/2000/svg" xmlns:xlink="http://www.w3.org/1999/xlink" xml:space="preserve" xmlns:serif="http://www.serif.com/" style="fill-rule:evenodd;clip-rule:evenodd;stroke-linecap:round;stroke-linejoin:round;stroke-miterlimit:1.5;">
    <path d="M245.859,423.376C245.857,424.076 280.28,378.419 280.28,379.824C280.28,381.229 320.32,332.057 319.617,332.057C318.915,332.057 356.85,290.612 356.85,290.612L389.863,252.679L410.936,228.796L448.872,196.483L483.292,175.409L575.308,138.879C575.308,138.879 663.118,107.973 663.118,108.676C663.118,109.378 690.514,102.354 690.514,102.354L709.483,98.139L731.961,99.544L740.388,103.759L740.388,114.296L731.959,125.535L723.526,138.879C723.526,138.879 716.499,152.223 715.097,151.523C713.695,150.823 703.858,169.084 703.858,169.084L690.514,184.541L681.382,199.995L677.167,211.937C677.167,211.937 676.143,232.655 670.845,258.299C665.302,285.131 663.234,297.192 650.474,349.618C636.543,406.851 624.904,424.93 621.67,421.971C620.313,461.996 614.488,505.299 605.517,549.115L701.053,613.039C728.656,627.46 734.95,639.456 743.201,651.674C755.657,681.449 755.094,704.244 750.225,724.729C740.534,730.606 731.354,736.679 722.827,736.671C662.513,739.431 606.951,737.375 552.133,734.564C495.141,729.678 437.189,721.871 375.814,703.656C308.899,677.607 243.866,630 178.426,587.048C167.097,576.727 154.782,568.34 141.191,562.459C129.969,556.713 116.671,552.008 102.559,547.711C105.751,546.592 82.331,540.803 74.458,540.683C70.019,540.616 40.74,525.229 40.74,525.229L23.883,507.671L20.374,488.704L25.991,477.465L42.853,471.143L56.196,470.44L75.165,469.738L101.859,469.036L125.04,466.928C134.343,461.162 148.245,453.903 158.055,453.582L171.399,446.557L200.203,440.235L224.786,430.401C224.786,430.401 245.862,422.676 245.859,423.376Z" style="fill:rgb(48,74,165);"/>
    <path d="M46.359,493.619L82.187,492.217L118.715,490.109L157.353,494.324L198.095,502.051L248.672,506.968L290.819,510.48L355.445,518.91L420.068,533.661L449.574,542.793L483.995,549.818L521.225,560.355L568.992,564.57L598.492,572.999L638.535,594.775L668.035,614.444L688.409,631.303L706.67,646.054L723.529,649.567L736.173,678.367L737.578,706.466L708.778,721.92L686.296,723.322L644.854,721.92L568.986,722.619L498.743,709.978L400,686.794L325.939,657.294L235.323,605.312L180.531,568.784L150.325,553.33L126.439,539.278L100.448,533.659L65.331,523.125L49.877,510.48L46.359,493.619Z" style="fill:rgb(103,118,138);stroke:black;stroke-width:1px;"/>
    <path d="M597.79,218.259L598.492,202.805L609.032,198.59L618.863,211.937L621.676,233.713L625.888,259.704L628.698,283.587L632.912,321.52L631.507,349.618L627.293,393.17L623.778,412.134L618.164,365.072L614.649,321.52L606.922,277.968L602.71,244.952L597.79,218.259Z" style="fill:rgb(103,118,138);stroke:black;stroke-width:1px;"/>
    <path d="M250.777,424.781L266.231,418.058L285.197,418.058L311.188,427.591L342.096,438.83L368.089,448.664C368.089,448.664 391.265,461.309 389.863,459.201C388.461,457.094 416.556,469.738 416.556,469.738L444.654,475.358L479.777,490.109L508.581,504.861L540.891,519.612L561.262,529.447L577.418,535.769L597.79,544.198C597.79,544.198 592.164,532.251 590.06,530.849C587.955,529.447 557.047,510.48 557.047,510.48L511.388,490.109L462.216,469.036L410.934,447.257L368.084,438.125L318.918,418.058L283.09,400L250.777,424.781Z" style="fill:rgb(103,118,138);stroke:black;stroke-width:1px;"/>
    <path d="M506.47,291.314L480.48,326.437L490.314,369.989L512.795,392.468L540.893,400L559.157,384.038L573.206,346.808L580.228,315.9L567.587,288.505L533.866,280.075L506.47,291.314" style="fill:rgb(103,118,138);stroke:black;stroke-width:1px;"/>
    <path d="M687.001,131.857L696.133,162.063L698.943,147.311L687.001,131.857Z" style="fill:rgb(103,118,138);"/>
</svg>
