<?xml version="1.0" encoding="UTF-8" standalone="no"?>
<!DOCTYPE svg PUBLIC "-//W3C//DTD SVG 1.1//EN" "http://www.w3.org/Graphics/SVG/1.1/DTD/svg11.dtd">
<svg width="100%" height="100%" viewBox="0 0 800 800" version="1.1" xmlns="http://www.w3.org/2000/svg" xmlns:xlink="http://www.w3.org/1999/xlink" xml:space="preserve" xmlns:serif="http://www.serif.com/" style="fill-rule:evenodd;clip-rule:evenodd;stroke-linecap:round;stroke-linejoin:round;stroke-miterlimit:1.5;">
    <g transform="matrix(1.10804,0,0,1.10804,-84.338,-36.305)">
        <path d="M207.568,228.357C209.73,232.681 174.414,253.582 174.414,253.582L134.054,310.519L117.475,350.876L106.667,373.222L106.669,381.149L115.315,368.897L129.009,354.483L144.868,337.185L156.396,332.861L147.027,352.321L130.45,378.267L125.405,409.996L121.084,429.438L121.081,461.87L123.964,468.357L130.453,449.618L146.303,434.48L165.045,418.627L170.811,409.996L160.721,435.204L151.351,460.429C151.351,460.429 149.91,497.185 149.91,499.348C149.91,501.51 154.234,537.546 154.234,537.546L173.694,575.744C173.694,575.744 193.874,606.735 194.595,606.014C195.315,605.294 203.961,615.381 203.961,615.381L206.123,582.948L204.685,557.726L209.73,543.312C209.73,543.312 212.613,535.384 212.613,536.825C212.613,538.267 214.775,566.375 214.775,566.375L219.099,598.807L229.189,627.636L251.532,669.438L274.597,696.104C274.597,696.104 289.015,706.194 289.733,706.194C290.45,706.194 286.847,677.366 286.847,677.366C286.847,677.366 286.132,636.285 286.129,638.447C286.126,640.609 293.331,613.939 293.331,613.939L308.468,642.05L326.486,678.086L347.39,705.474L360.36,727.816C360.36,727.816 372.613,680.249 371.171,681.69C369.73,683.131 384.865,617.546 384.144,617.546C383.423,617.546 414.414,569.978 414.414,569.978L461.982,536.104L525.408,511.6L575.138,508.717L632.793,517.366C632.793,517.366 675.315,522.411 674.595,522.411C673.874,522.411 712.075,510.158 712.075,510.158L741.622,486.375L741.619,461.867L735.132,451.777L743.063,429.438L733.694,421.51L742.342,409.996L748.108,391.24L749.55,366.014L751.715,356.645L766.126,349.438L759.637,329.255L738.736,313.399L701.261,301.87L657.297,298.267C657.297,298.267 593.874,298.987 593.153,298.987C592.432,298.987 580.18,290.339 580.18,291.059C580.18,291.78 572.973,273.762 572.252,273.762C571.532,273.762 557.838,265.113 556.396,265.834C554.955,266.555 533.333,259.348 533.333,259.348C533.333,259.348 528.288,257.906 521.081,252.14C513.874,246.375 500.183,229.077 500.183,229.077L484.324,214.663L454.051,216.822L423.019,216.104C423.019,216.104 394.229,184.387 392.79,183.669C391.351,182.951 367.57,128.9 367.568,129.618C367.565,130.336 338.739,88.537 338.739,88.537L312.793,59.708C312.793,59.708 307.027,92.861 306.306,92.14C305.586,91.42 296.937,114.483 296.937,114.483L290.45,149.077L291.895,162.771L262.345,138.987L229.189,102.951L206.129,72.681L208.288,97.906L206.123,127.453L196.036,154.843L198.201,190.879L204.685,213.222C204.685,213.222 205.405,224.032 207.568,228.357Z" style="fill:rgb(86,88,100);stroke:black;stroke-width:0.9px;"/>
    </g>
    <g transform="matrix(1.10804,0,0,1.10804,-84.338,-36.305)">
        <path d="M389.189,274.483L400,268.717L423.019,264.393L429.55,263.672L436.396,278.807L436.396,298.987L451.171,315.564L469.189,325.654L487.21,334.303L510.273,335.023L515.315,324.213L535.498,314.843L546.309,304.753L555.678,287.456L536.934,301.867L520.36,304.753L497.294,293.219L474.952,277.363L456.213,265.111L423.019,253.582C423.019,253.582 407.207,257.185 406.486,257.185C405.766,257.185 389.189,274.483 389.189,274.483Z" style="stroke:black;stroke-width:0.9px;"/>
    </g>
    <g transform="matrix(1.10804,0,0,1.10804,-84.338,-36.305)">
        <path d="M697.66,301.87C697.658,302.591 696.937,335.023 696.937,335.023L713.514,373.219L722.883,385.474C729.251,377.767 737.639,373.144 742.951,361.988C752.457,358.738 764.871,350.346 766.126,347.996C774.492,332.328 744.515,309.202 718.995,307.737L697.66,301.87" style="fill:rgb(68,40,40);stroke:black;stroke-width:0.9px;"/>
    </g>
    <g transform="matrix(1.10804,0,0,1.10804,-84.338,-36.305)">
        <path d="M223.423,136.825C221.261,136.104 226.309,160.609 226.309,160.609L229.192,188.717L234.237,216.825L241.444,237.005L266.669,253.582L285.408,270.879L304.868,270.879L307.748,253.582L298.378,218.267C298.378,218.267 281.807,192.321 281.084,192.321C280.36,192.321 261.622,177.185 261.622,177.185L244.327,164.213L236.399,154.122C236.399,154.122 225.586,137.546 223.423,136.825Z" style="fill:rgb(89,89,89);stroke:black;stroke-width:0.9px;"/>
    </g>
    <g transform="matrix(1.10804,0,0,1.10804,-84.338,-36.305)">
        <path d="M322.88,101.507L329.372,136.81L345.225,175.744L366.129,185.834L363.967,164.213L347.387,127.456C347.387,127.456 324.316,105.108 322.88,101.507" style="fill:rgb(89,89,89);stroke:black;stroke-width:0.9px;"/>
    </g>
    <g transform="matrix(1.10804,0,0,1.10804,24.8728,-43.855)">
        <path d="M429.55,400L432.43,481.327C432.43,481.327 397.838,495.744 400,491.42C402.162,487.095 412.97,409.996 412.97,409.996L429.55,400" style="fill:rgb(235,218,186);stroke:black;stroke-width:0.9px;"/>
    </g>
    <g transform="matrix(1.10804,0,0,1.10804,24.8728,-43.855)">
        <path d="M483.604,385.474L462.314,409.996C456.1,419.542 449.499,429.778 445.848,437.974C442.129,446.323 438.841,456.883 435.142,466.22L432.43,405.654L483.604,385.474" style="fill:rgb(235,218,186);stroke:black;stroke-width:0.9px;"/>
    </g>
    <g transform="matrix(1.10804,0,0,1.10804,24.8728,-43.855)">
        <path d="M435.918,477.393L446.847,453.942L467.106,421.065L483.604,400L480.889,419.902L480.89,452.585L483.604,464.753L435.918,477.393Z" style="fill:rgb(235,218,186);stroke:black;stroke-width:0.9px;"/>
    </g>
    <g transform="matrix(1.10804,0,0,1.10804,24.8728,-43.855)">
        <path d="M509.655,382.179C505.286,381.385 493.446,396.726 492.252,400C488.098,406.926 485.906,416.453 483.604,425.834L483.604,453.942L496.577,438.503L512.432,419.708L530.45,400L544.144,385.474C544.144,385.474 513.969,382.963 509.655,382.179Z" style="fill:rgb(235,218,186);stroke:black;stroke-width:0.9px;"/>
    </g>
    <g transform="matrix(1.10804,0,0,1.10804,24.8728,-43.855)">
        <path d="M544.144,394.961C544.144,394.961 540.934,411.364 540.462,418.046C537.947,423.849 540.511,430.777 540.656,438.696L541.82,446.114L544.144,453.942C544.144,453.942 495.13,466.91 492.97,466.192C490.811,465.474 501.151,446.114 501.151,446.114L513.874,425.847L526.622,410.189L544.144,394.961Z" style="fill:rgb(235,218,186);stroke:black;stroke-width:0.9px;"/>
    </g>
    <g transform="matrix(1.10804,0,0,1.10804,24.8728,-43.855)">
        <path d="M585.228,400C585.832,401.185 552.072,385.474 552.072,385.474L544.144,433.11L550.633,446.114C554.231,437.591 557.481,429.203 562.551,420.104C566.062,415.486 568.047,411.044 572.143,409.22C577.383,406.887 584.146,397.877 585.228,400Z" style="fill:rgb(235,218,186);stroke:black;stroke-width:0.9px;"/>
    </g>
    <g transform="matrix(1.10804,0,0,1.10804,24.8728,-43.855)">
        <path d="M585.228,409.996L585.228,433.11L591.715,438.503L603.246,425.834L614.054,418.747L618.378,409.996L590.27,409.996L585.228,409.996Z" style="fill:rgb(235,218,186);stroke:black;stroke-width:0.9px;"/>
    </g>
    <g transform="matrix(1.10804,0,0,1.10804,24.8728,-43.855)">
        <path d="M581.701,407.476L568.175,420.491L559.689,432.319C558.726,434.246 555.494,441.101 555.56,446.114L557.424,449.485L581.739,443.013C580.413,437.108 579.473,431.318 579.608,425.847C579.709,420.039 580.669,413.776 581.701,407.476Z" style="fill:rgb(235,218,186);stroke:black;stroke-width:0.9px;"/>
    </g>
    <g transform="matrix(1.10804,0,0,1.10804,24.8728,-43.855)">
        <path d="M624,414.212C614.213,421.632 605.538,430.868 595.313,438.503L636.293,430.59L624,414.212Z" style="fill:rgb(235,218,186);stroke:black;stroke-width:0.9px;"/>
    </g>
    <g transform="matrix(1.10804,0,0,1.10804,-84.338,-36.305)">
        <path d="M307.798,343.618L278.798,371.188L316.227,368.331L276.513,404.044L320.226,396.045" style="fill:none;stroke:black;stroke-width:5.87px;"/>
    </g>
    <g transform="matrix(1.10804,0,0,1.10804,-84.338,-36.305)">
        <path d="M342.511,517.898L315.655,563.468L356.796,541.897C356.796,541.897 329.082,588.039 329.368,589.182C329.655,590.325 368.082,561.183 368.082,561.183" style="fill:none;stroke:black;stroke-width:5.87px;"/>
    </g>
</svg>
